<svg aria-hidden="true" style="position: absolute; width: 0; height: 0; overflow: hidden;" version="1.1" xmlns="http://www.w3.org/2000/svg" xmlns:xlink="http://www.w3.org/1999/xlink">
<defs>
<symbol id="icon-facebook" viewBox="0 0 32 32">
<path  d="M13.658-7.944c-4.548 0.46-8.881 2.195-12.473 4.98-1.097 0.853-2.964 2.692-3.873 3.817-2.617 3.245-4.323 7.034-5.055 11.245-0.272 1.613-0.347 5.168-0.131 6.809 0.403 3.020 1.144 5.449 2.466 8.047 1.107 2.185 2.401 3.977 4.201 5.824 3.883 3.986 8.656 6.359 14.302 7.1 1.632 0.206 5.186 0.141 6.809-0.141 2.457-0.422 4.548-1.097 6.743-2.176 2.326-1.144 4.201-2.467 6.133-4.352 3.723-3.63 6.068-8.103 6.959-13.309 0.281-1.632 0.347-5.074 0.141-6.809-0.863-7.044-4.755-13.309-10.7-17.22-3.085-2.026-6.518-3.283-10.175-3.742-1.060-0.131-4.37-0.178-5.346-0.075zM21.714 4.221c0.188 0.169 0.197 0.272 0.197 1.791 0 1.238-0.028 1.651-0.131 1.791-0.122 0.159-0.291 0.188-1.576 0.225-1.716 0.066-2.082 0.206-2.438 0.928-0.197 0.394-0.216 0.591-0.244 2.279l-0.038 1.857h2.091c1.81 0 2.11 0.019 2.26 0.159 0.216 0.197 0.216 0.45-0.019 2.326-0.103 0.825-0.188 1.529-0.188 1.566 0 0.047-0.084 0.16-0.188 0.263-0.178 0.178-0.309 0.188-2.063 0.188h-1.876v5.037c0 3.020-0.038 5.102-0.094 5.186-0.122 0.197-3.826 0.206-4.061 0.009-0.141-0.113-0.159-0.591-0.159-5.177v-5.055h-1.388c-1.951 0-1.801 0.178-1.801-2.223 0-1.669 0.019-1.96 0.159-2.11 0.131-0.15 0.319-0.169 1.594-0.169h1.435v-1.913c0-2.27 0.141-3.264 0.6-4.23 0.619-1.304 1.482-2.091 2.813-2.56 0.835-0.291 1.688-0.375 3.489-0.356 1.257 0.009 1.444 0.028 1.622 0.188z"></path>
</symbol>
<symbol id="icon-telegram" viewBox="0 0 32 32">
<path d="M16 0c-8.839 0-16 7.162-16 16s7.162 16 16 16c8.839 0 16-7.162 16-16s-7.162-16-16-16zM23.859 10.961l-2.627 12.375c-0.193 0.878-0.716 1.091-1.445 0.677l-4-2.948-1.929 1.858c-0.213 0.213-0.393 0.393-0.807 0.393l0.285-4.071 7.413-6.697c0.323-0.284-0.071-0.445-0.498-0.161l-9.161 5.767-3.948-1.232c-0.858-0.271-0.877-0.858 0.18-1.271l15.427-5.949c0.716-0.258 1.342 0.175 1.109 1.259l0.001 0.001z"></path>
</symbol>
<symbol id="icon-viber" viewBox="0 0 32 32">
<path opacity="0.5" d="M16 0c8.837 0 16 7.163 16 16s-7.163 16-16 16c-8.837 0-16-7.163-16-16s7.163-16 16-16z"></path>
<path fill="#ff8a00" style="fill: var(--color1, #ff8a00)" d="M16 32c8.837 0 16-7.163 16-16s-7.163-16-16-16c-8.837 0-16 7.163-16 16s7.163 16 16 16zM11.851 9.107c2.622-0.587 5.341-0.587 7.963 0l0.283 0.063c0.738 0.165 1.415 0.531 1.957 1.057s0.927 1.193 1.113 1.926c0.665 2.619 0.665 5.362 0 7.981-0.186 0.732-0.571 1.399-1.113 1.926s-1.219 0.893-1.957 1.058l-0.283 0.062c-1.67 0.373-3.385 0.511-5.093 0.407l-2.276 2.035c-0.056 0.050-0.123 0.083-0.197 0.098s-0.149 0.009-0.219-0.016c-0.070-0.025-0.133-0.068-0.181-0.125s-0.080-0.126-0.092-0.199l-0.387-2.313c-0.695-0.192-1.326-0.565-1.83-1.080s-0.863-1.154-1.040-1.853c-0.664-2.619-0.664-5.361 0-7.98 0.186-0.733 0.571-1.399 1.113-1.926s1.219-0.893 1.957-1.058l0.282-0.062zM12.107 12.173c0.135-0.080 0.293-0.111 0.447-0.089l-0.001-0.001c0.144 0.027 0.274 0.105 0.367 0.219 0.425 0.485 0.8 1.009 1.123 1.567 0.211 0.373 0.073 0.752-0.123 0.912l-0.41 0.33c-0.211 0.16-0.183 0.473-0.183 0.473s0.607 2.304 2.883 2.885l0.009-0.005c0 0 0.305 0.028 0.473-0.177l0.327-0.413c0.153-0.205 0.533-0.327 0.907-0.125 0.557 0.324 1.082 0.701 1.567 1.125 0.242 0.203 0.299 0.501 0.131 0.817v0.006c-0.178 0.314-0.407 0.597-0.678 0.837-0.222 0.201-0.505 0.323-0.803 0.345-0.095 0-0.188-0.013-0.29-0.045v-0.005c-0.351-0.103-0.935-0.351-1.898-0.875-0.842-0.466-1.621-1.037-2.318-1.7l-0.023-0.020-0.019-0.023-0.031-0.023-0.020-0.029c-0.661-0.695-1.23-1.472-1.692-2.312-0.358-0.599-0.652-1.234-0.877-1.895l-0.015-0.008c-0.040-0.128-0.051-0.263-0.035-0.396 0.029-0.225 0.137-0.459 0.337-0.689 0.24-0.271 0.522-0.503 0.835-0.686l0.011 0.001zM16.105 11.205c0.039-0.039 0.085-0.069 0.135-0.090s0.105-0.032 0.159-0.032c1.255 0 2.343 0.419 3.201 1.24l0.009 0.008c0.437 0.441 0.778 0.966 1.003 1.545 0.224 0.576 0.327 1.191 0.301 1.809-0.009 0.108-0.059 0.208-0.139 0.279s-0.186 0.109-0.294 0.104c-0.108-0.005-0.21-0.051-0.284-0.129s-0.116-0.182-0.115-0.29c0.021-0.502-0.062-1.003-0.244-1.471-0.183-0.47-0.46-0.898-0.815-1.257-0.692-0.66-1.567-1.005-2.621-1.005-0.082 0-0.163-0.024-0.232-0.070s-0.122-0.111-0.154-0.187c-0.031-0.076-0.040-0.16-0.024-0.241s0.056-0.155 0.114-0.213zM16.076 12.575c0.039-0.039 0.085-0.069 0.135-0.090s0.105-0.032 0.16-0.032h0.042l0.014 0.001c0.932 0.062 1.706 0.382 2.27 0.987v0.002c0.552 0.595 0.83 1.341 0.81 2.205-0.008 0.107-0.057 0.206-0.136 0.278s-0.183 0.111-0.29 0.108c-0.107-0.003-0.209-0.046-0.285-0.121s-0.12-0.177-0.123-0.284c0.016-0.658-0.19-1.191-0.587-1.619-0.387-0.415-0.941-0.669-1.701-0.723h-0.015c-0.082 0-0.163-0.024-0.232-0.070s-0.122-0.111-0.153-0.187c-0.031-0.076-0.040-0.16-0.024-0.241s0.056-0.155 0.114-0.213zM16.189 13.868c0.053-0.018 0.11-0.024 0.166-0.019 0.498 0.027 0.937 0.185 1.26 0.51 0.32 0.325 0.477 0.767 0.504 1.267 0.004 0.055-0.003 0.111-0.021 0.163s-0.046 0.101-0.082 0.143c-0.037 0.041-0.081 0.075-0.131 0.1s-0.104 0.038-0.159 0.041c-0.055 0.003-0.111-0.005-0.163-0.024s-0.1-0.048-0.141-0.085-0.074-0.083-0.097-0.133c-0.023-0.050-0.036-0.105-0.038-0.16-0.019-0.355-0.124-0.583-0.265-0.725s-0.363-0.246-0.711-0.264c-0.098-0.002-0.193-0.039-0.267-0.104s-0.122-0.154-0.137-0.251c-0.015-0.097 0.006-0.197 0.057-0.28s0.13-0.146 0.223-0.177z"></path>
</symbol>
<symbol id="icon-whatsapp" viewBox="0 0 32 32">
<path opacity="0.5" d="M16 0c8.837 0 16 7.163 16 16s-7.163 16-16 16c-8.837 0-16-7.163-16-16s7.163-16 16-16z"></path>
<path fill="#ff8a00" style="fill: var(--color1, #ff8a00)" d="M16 32c8.837 0 16-7.163 16-16s-7.163-16-16-16c-8.837 0-16 7.163-16 16s7.163 16 16 16zM9.86 10.409c1.305-1.623 3.314-2.743 5.44-3.028 0.327-0.041 0.98-0.058 1.457-0.041 3.733 0.184 6.771 2.685 7.717 6.357 0.159 0.611 0.193 0.962 0.193 1.957 0 1.38-0.151 2.158-0.645 3.321-0.795 1.882-2.427 3.521-4.302 4.324-2.327 0.996-4.747 0.929-7.157-0.192l-0.695-0.327-1.607 0.385c-0.887 0.209-1.632 0.36-1.657 0.343-0.025-0.025 0.109-0.778 0.293-1.665l0.343-1.614-0.385-0.862c-0.477-1.053-0.67-1.715-0.795-2.719-0.277-2.116 0.418-4.525 1.8-6.24zM14.421 13.279c0-0.209-0.929-2.25-1.113-2.459-0.419-0.451-1.138-0.092-1.808 0.903-0.427 0.653-0.553 1.196-0.427 1.966 0.217 1.347 0.871 2.484 2.26 3.923 1.992 2.058 3.993 3.145 5.784 3.145 1.004 0 1.423-0.167 2.075-0.82 0.871-0.878 1.030-1.455 0.486-1.815-0.26-0.167-2.151-0.711-2.478-0.711-0.193 0-0.36 0.109-0.72 0.46-0.418 0.41-0.51 0.46-0.82 0.46-0.553 0-1.465-0.593-2.687-1.756-0.318-0.301-0.737-0.761-0.938-1.037-0.46-0.611-0.477-0.887-0.092-1.397 0.343-0.443 0.477-0.694 0.477-0.861z"></path>
</symbol>
</defs>
</svg>
