<svg width="32" height="32" viewBox="0 0 32 32" fill="none" xmlns="http://www.w3.org/2000/svg">
<g clip-path="url(#clip0_77_84)">
<path d="M13.6578 -7.94378C9.10931 -7.48421 4.77656 -5.74911 1.18469 -2.96357C0.0874367 -2.11009 -1.77883 -0.271824 -2.68852 0.853645C-5.30506 4.09875 -7.0119 7.88784 -7.7434 12.099C-8.01537 13.7121 -8.0904 17.2668 -7.8747 18.9081C-7.47143 21.9281 -6.73055 24.3572 -5.40822 26.9552C-4.30158 29.1405 -3.00739 30.9318 -1.20676 32.7795C2.67583 36.7655 7.44936 39.1384 13.0951 39.8793C14.7269 40.0857 18.2812 40.02 19.9037 39.7387C22.3608 39.3166 24.4521 38.6413 26.6466 37.5627C28.9724 36.4185 30.8481 35.0961 32.78 33.2109C36.5032 29.5813 38.8477 25.1075 39.7387 19.9022C40.02 18.2703 40.0857 14.8282 39.8793 13.0931C39.0165 6.04957 35.1246 -0.215549 29.1788 -4.12656C26.0933 -6.15241 22.6609 -7.40918 19.0034 -7.86875C17.9436 -8.00005 14.6331 -8.04695 13.6578 -7.94378ZM21.7137 4.22068C21.9012 4.3895 21.9106 4.49267 21.9106 6.01205C21.9106 7.25007 21.8825 7.66274 21.7793 7.80342C21.6574 7.96287 21.4886 7.991 20.2038 8.02852C18.4876 8.09417 18.1218 8.23486 17.7654 8.95703C17.5685 9.35095 17.5497 9.5479 17.5216 11.2361L17.4841 13.0931H19.5754C21.3854 13.0931 21.6855 13.1119 21.8356 13.2526C22.0513 13.4495 22.0513 13.7028 21.8168 15.5786C21.7137 16.4039 21.6293 17.1073 21.6293 17.1448C21.6293 17.1917 21.5449 17.3043 21.4417 17.4074C21.2635 17.5856 21.1322 17.595 19.3785 17.595H17.5028V22.6315C17.5028 25.6515 17.4653 27.7336 17.4091 27.818C17.2871 28.015 13.5827 28.0244 13.3483 27.8274C13.2076 27.7149 13.1889 27.2366 13.1889 22.6503V17.595H11.8009C9.85019 17.595 10.0002 17.7732 10.0002 15.3722C10.0002 13.7028 10.019 13.412 10.1597 13.262C10.291 13.1119 10.4785 13.0931 11.754 13.0931H13.1889V11.1798C13.1889 8.91014 13.3295 7.91597 13.7891 6.94994C14.408 5.64627 15.2708 4.85844 16.6025 4.3895C17.4372 4.09875 18.2906 4.01434 20.0912 4.0331C21.3479 4.04248 21.5355 4.06124 21.7137 4.22068Z" fill="#FF8A00"/>
</g>
<defs>
<clipPath id="clip0_77_84">
<rect width="32" height="32" rx="16" fill="white"/>
</clipPath>
</defs>
</svg>
