<svg width="40" height="40" viewBox="0 0 40 40" fill="none" xmlns="http://www.w3.org/2000/svg">
<path d="M7.27655 35.3905V33.3306C7.28864 33.1573 7.26364 32.9835 7.20323 32.8206C7.14282 32.6578 7.04839 32.5097 6.92623 32.3862C6.80407 32.2628 6.657 32.1668 6.49481 32.1047C6.33262 32.0425 6.15906 32.0157 5.98569 32.026C5.75878 32.0112 5.53206 32.0575 5.32917 32.1602C5.12627 32.2628 4.95463 32.418 4.83213 32.6096C4.72048 32.4237 4.56078 32.2714 4.36985 32.1687C4.17892 32.066 3.96383 32.0167 3.74722 32.026C3.55841 32.0165 3.37039 32.0565 3.20178 32.142C3.03317 32.2275 2.88982 32.3555 2.78592 32.5135V32.1084H2.07178V35.3905H2.79275V33.5709C2.77716 33.4586 2.78664 33.3443 2.82049 33.2361C2.85434 33.1279 2.91173 33.0285 2.98854 32.9452C3.06535 32.8618 3.15966 32.7965 3.26472 32.7539C3.36977 32.7113 3.48296 32.6925 3.59614 32.6989C4.06992 32.6989 4.31028 33.0079 4.31028 33.564V35.3905H5.03126V33.5709C5.01684 33.4588 5.02713 33.3449 5.06141 33.2373C5.0957 33.1296 5.15314 33.0307 5.2297 32.9476C5.30627 32.8645 5.4001 32.7992 5.5046 32.7562C5.60911 32.7132 5.72176 32.6937 5.83463 32.6989C6.32212 32.6989 6.55558 33.0079 6.55558 33.564V35.3905H7.27655ZM17.947 32.1084H16.7797V31.1127H16.0588V32.1084H15.3927V32.7607H16.0588V34.2576C16.0588 35.0197 16.354 35.4729 17.1986 35.4729C17.5141 35.4739 17.8235 35.3858 18.0912 35.2189L17.8853 34.6077C17.6938 34.722 17.4764 34.7858 17.2535 34.7931C16.8965 34.7931 16.7797 34.5734 16.7797 34.2439V32.7607H17.947V32.1084ZM24.0376 32.026C23.8635 32.0208 23.6912 32.0628 23.5389 32.1474C23.3867 32.232 23.2601 32.3561 23.1724 32.5066V32.1084H22.4652V35.3905H23.1793V33.5503C23.1793 33.0079 23.4127 32.7057 23.8797 32.7057C24.0324 32.7036 24.1841 32.7316 24.326 32.7881L24.5457 32.1152C24.3826 32.0569 24.2108 32.0267 24.0376 32.026ZM14.8297 32.3693C14.4255 32.1289 13.9607 32.0098 13.4907 32.026C12.6599 32.026 12.1243 32.4242 12.1243 33.0765C12.1243 33.6121 12.5225 33.9417 13.2572 34.0447L13.5937 34.0927C13.9851 34.1476 14.1705 34.2507 14.1705 34.436C14.1705 34.6901 13.9095 34.8343 13.422 34.8343C13.0299 34.8456 12.6454 34.7247 12.3303 34.491L11.9938 35.0472C12.4098 35.3377 12.908 35.4869 13.4152 35.4729C14.3627 35.4729 14.912 35.0266 14.912 34.4017C14.912 33.8249 14.4795 33.5228 13.7654 33.4198L13.4289 33.3717C13.1199 33.3306 12.8727 33.2688 12.8727 33.0491C12.8727 32.8087 13.1061 32.6645 13.4976 32.6645C13.857 32.67 14.2091 32.7668 14.5207 32.9461L14.8297 32.3693ZM33.9596 32.026C33.7855 32.0208 33.6132 32.0628 33.4609 32.1474C33.3087 32.232 33.1821 32.3561 33.0944 32.5066V32.1084H32.3872V35.3905H33.1013V33.5503C33.1013 33.0079 33.3348 32.7057 33.8016 32.7057C33.9544 32.7036 34.1061 32.7316 34.248 32.7881L34.4677 32.1152C34.3047 32.0569 34.1328 32.0267 33.9596 32.026ZM24.7585 33.7494C24.749 33.9806 24.7881 34.2112 24.8731 34.4265C24.9581 34.6417 25.0872 34.8368 25.2521 34.9991C25.417 35.1615 25.6141 35.2875 25.8307 35.3691C26.0472 35.4507 26.2785 35.4861 26.5095 35.4729C26.9383 35.4945 27.3595 35.3549 27.6905 35.0815L27.3472 34.5047C27.1003 34.6929 26.7993 34.7965 26.4889 34.8C26.2213 34.7837 25.97 34.666 25.7862 34.4708C25.6025 34.2755 25.5002 34.0175 25.5002 33.7494C25.5002 33.4813 25.6025 33.2233 25.7862 33.0281C25.97 32.8329 26.2213 32.7151 26.4889 32.6989C26.7993 32.7024 27.1003 32.8059 27.3472 32.9942L27.6905 32.4173C27.3595 32.144 26.9382 32.0044 26.5095 32.026C26.2785 32.0128 26.0473 32.0482 25.8307 32.1298C25.6142 32.2114 25.4171 32.3374 25.2522 32.4997C25.0872 32.662 24.9581 32.8571 24.8731 33.0723C24.7881 33.2875 24.7491 33.5182 24.7585 33.7494ZM31.4465 33.7494V32.1084H30.7324V32.5066C30.6105 32.3495 30.4527 32.2239 30.2723 32.1403C30.092 32.0567 29.8942 32.0175 29.6955 32.026C29.253 32.0477 28.8358 32.2387 28.5303 32.5596C28.2249 32.8804 28.0545 33.3064 28.0545 33.7495C28.0545 34.1925 28.2249 34.6185 28.5303 34.9394C28.8358 35.2602 29.253 35.4512 29.6955 35.4729C29.8942 35.4814 30.092 35.4422 30.2724 35.3586C30.4527 35.2749 30.6105 35.1493 30.7324 34.9922V35.3905H31.4465V33.7494ZM28.7891 33.7494C28.8002 33.5557 28.8677 33.3695 28.9834 33.2137C29.099 33.058 29.2577 32.9395 29.4399 32.8728C29.6221 32.8062 29.8198 32.7943 30.0087 32.8386C30.1975 32.883 30.3692 32.9817 30.5027 33.1225C30.6361 33.2633 30.7255 33.4401 30.7596 33.6311C30.7938 33.822 30.7714 34.0188 30.695 34.1971C30.6187 34.3755 30.4919 34.5276 30.3301 34.6347C30.1684 34.7419 29.9788 34.7993 29.7848 34.8C29.6489 34.8018 29.514 34.7755 29.3887 34.7226C29.2634 34.6697 29.1504 34.5915 29.0569 34.4928C28.9633 34.3941 28.8912 34.277 28.8452 34.1491C28.7991 34.0212 28.78 33.8851 28.7891 33.7494ZM20.1718 32.026C19.7265 32.0494 19.3075 32.2444 19.0028 32.5701C18.6982 32.8957 18.5315 33.3267 18.5377 33.7726C18.5439 34.2185 18.7226 34.6447 19.0362 34.9617C19.3498 35.2787 19.774 35.4619 20.2199 35.4729C20.7098 35.4901 21.1888 35.3263 21.5657 35.0128L21.2155 34.4841C20.9443 34.7015 20.6085 34.8223 20.261 34.8275C20.0251 34.8473 19.7906 34.7745 19.6074 34.6246C19.4241 34.4746 19.3064 34.2593 19.2791 34.024H21.7167C21.7236 33.9348 21.7305 33.8455 21.7305 33.7494C21.7236 32.7263 21.0919 32.026 20.1718 32.026ZM20.158 32.6645C20.3737 32.6603 20.5823 32.7418 20.738 32.8911C20.8938 33.0404 20.984 33.2454 20.9889 33.461H19.286C19.2985 33.2407 19.3968 33.034 19.5597 32.8851C19.7227 32.7363 19.9374 32.6571 20.158 32.6645ZM38.0726 33.7494V30.79H37.3585V32.5066C37.2366 32.3495 37.0788 32.2239 36.8985 32.1403C36.7181 32.0567 36.5203 32.0175 36.3217 32.026C35.8792 32.0476 35.462 32.2387 35.1564 32.5595C34.8509 32.8804 34.6805 33.3064 34.6805 33.7495C34.6805 34.1925 34.8509 34.6185 35.1564 34.9394C35.462 35.2602 35.8792 35.4513 36.3217 35.4729C36.5203 35.4814 36.7181 35.4422 36.8985 35.3586C37.0789 35.2749 37.2366 35.1493 37.3585 34.9922V35.3905H38.0726V33.7494ZM39.263 34.9149C39.3073 34.9146 39.3513 34.9233 39.3922 34.9405C39.4315 34.9569 39.4673 34.9806 39.4977 35.0104C39.5279 35.0402 39.5521 35.0755 39.5688 35.1144C39.586 35.1544 39.5949 35.1974 39.5949 35.2409C39.5949 35.2844 39.586 35.3275 39.5688 35.3675C39.552 35.4062 39.5278 35.4413 39.4977 35.471C39.4672 35.5008 39.4314 35.5246 39.3922 35.5413C39.3514 35.5588 39.3074 35.5676 39.263 35.5673C39.1977 35.568 39.1336 35.5494 39.0788 35.5138C39.024 35.4783 38.9808 35.4274 38.9548 35.3675C38.9377 35.3275 38.9288 35.2844 38.9288 35.2409C38.9288 35.1974 38.9377 35.1544 38.9548 35.1144C38.9715 35.0755 38.9956 35.0402 39.0256 35.0104C39.056 34.9804 39.092 34.9566 39.1315 34.9405C39.1732 34.9232 39.2179 34.9145 39.263 34.9149ZM39.263 35.4954C39.2968 35.4956 39.3304 35.4888 39.3614 35.4754C39.3912 35.4624 39.4183 35.444 39.4413 35.421C39.4887 35.3731 39.5153 35.3085 39.5153 35.2411C39.5153 35.1737 39.4887 35.109 39.4413 35.0611C39.4184 35.0382 39.3913 35.0199 39.3614 35.0072C39.3303 34.994 39.2968 34.9873 39.263 34.9876C39.2286 34.9874 39.1945 34.994 39.1627 35.0072C39.1324 35.0197 39.1048 35.038 39.0815 35.0611C39.0341 35.109 39.0075 35.1737 39.0075 35.2411C39.0075 35.3085 39.0341 35.3731 39.0815 35.421C39.1048 35.4442 39.1324 35.4626 39.1627 35.4754C39.1944 35.4888 39.2285 35.4956 39.263 35.4954ZM39.2822 35.0883C39.3143 35.0863 39.3462 35.0955 39.3722 35.1144C39.3826 35.1229 39.3908 35.1338 39.3963 35.146C39.4018 35.1583 39.4043 35.1717 39.4037 35.1851C39.4041 35.1966 39.4021 35.2081 39.3977 35.2188C39.3934 35.2294 39.3869 35.2391 39.3786 35.247C39.3587 35.2647 39.3335 35.2753 39.307 35.2771L39.4061 35.3914H39.3286L39.2367 35.2779H39.2071V35.3914H39.1423V35.0883H39.2822ZM39.2071 35.1452V35.2259H39.2814C39.2957 35.2266 39.3099 35.2231 39.3222 35.2159C39.3272 35.2125 39.3313 35.2079 39.3339 35.2025C39.3366 35.1971 39.3378 35.1911 39.3374 35.1851C39.3377 35.1792 39.3365 35.1734 39.3338 35.1681C39.3312 35.1628 39.3272 35.1583 39.3222 35.1551C39.3099 35.1479 39.2957 35.1445 39.2814 35.1452H39.2071ZM35.4153 33.7494C35.4264 33.5557 35.4939 33.3695 35.6096 33.2138C35.7252 33.058 35.8839 32.9395 36.0661 32.8729C36.2483 32.8062 36.446 32.7944 36.6348 32.8388C36.8237 32.8831 36.9954 32.9818 37.1288 33.1226C37.2623 33.2634 37.3516 33.4402 37.3857 33.6311C37.4199 33.8221 37.3974 34.0189 37.3211 34.1972C37.2448 34.3756 37.1179 34.5277 36.9562 34.6348C36.7944 34.7419 36.6049 34.7993 36.4109 34.8C36.2749 34.8018 36.1401 34.7755 36.0148 34.7226C35.8895 34.6697 35.7765 34.5914 35.683 34.4927C35.5895 34.394 35.5174 34.277 35.4713 34.1491C35.4252 34.0211 35.4062 33.885 35.4153 33.7494ZM11.3003 33.7494V32.1084H10.5862V32.5066C10.4643 32.3495 10.3066 32.2239 10.1262 32.1403C9.94578 32.0567 9.74799 32.0175 9.54934 32.026C9.10685 32.0477 8.68966 32.2387 8.38417 32.5596C8.07868 32.8804 7.90829 33.3064 7.90829 33.7495C7.90829 34.1925 8.07868 34.6185 8.38417 34.9394C8.68966 35.2602 9.10685 35.4512 9.54934 35.4729C9.74799 35.4814 9.94578 35.4422 10.1262 35.3586C10.3066 35.2749 10.4643 35.1493 10.5862 34.9922V35.3905H11.3003V33.7494ZM8.64302 33.7494C8.65411 33.5557 8.72164 33.3695 8.83728 33.2138C8.95293 33.058 9.11162 32.9395 9.2938 32.8729C9.47599 32.8062 9.67369 32.7944 9.86253 32.8388C10.0514 32.8831 10.2231 32.9818 10.3565 33.1226C10.49 33.2634 10.5793 33.4402 10.6134 33.6312C10.6476 33.8221 10.6251 34.0189 10.5488 34.1972C10.4725 34.3756 10.3456 34.5277 10.1839 34.6348C10.0221 34.7419 9.8326 34.7993 9.63862 34.8C9.50265 34.8018 9.36777 34.7755 9.24249 34.7226C9.11721 34.6697 9.00424 34.5914 8.91071 34.4927C8.81717 34.394 8.7451 34.277 8.69903 34.1491C8.65295 34.0211 8.63388 33.885 8.64302 33.7494Z" fill="#FAFAFF"/>
<path d="M25.4084 7.0957H14.5923V26.5326H25.4084V7.0957Z" fill="#FF5F00"/>
<path d="M15.279 16.8144C15.2772 14.9425 15.7014 13.0948 16.5194 11.411C17.3374 9.72727 18.5277 8.25169 20.0002 7.09598C18.1767 5.66263 15.9867 4.77125 13.6805 4.52372C11.3743 4.2762 9.04498 4.68251 6.95879 5.69623C4.8726 6.70994 3.1137 8.29015 1.88314 10.2562C0.652576 12.2223 0 14.495 0 16.8144C0 19.1339 0.652576 21.4065 1.88314 23.3726C3.1137 25.3387 4.8726 26.9189 6.95879 27.9326C9.04498 28.9464 11.3743 29.3527 13.6805 29.1052C15.9867 28.8576 18.1767 27.9663 20.0002 26.5329C18.5277 25.3772 17.3374 23.9016 16.5194 22.2179C15.7014 20.5341 15.2773 18.6863 15.279 16.8144Z" fill="#EB001B"/>
<path d="M40 16.8144C40.0001 19.1338 39.3476 21.4065 38.1171 23.3726C36.8866 25.3387 35.1278 26.9189 33.0416 27.9326C30.9555 28.9464 28.6262 29.3527 26.32 29.1052C24.0139 28.8576 21.8239 27.9662 20.0004 26.5329C21.4716 25.376 22.661 23.9002 23.4788 22.2167C24.2967 20.5332 24.7216 18.686 24.7216 16.8144C24.7216 14.9428 24.2967 13.0956 23.4788 11.4122C22.661 9.72868 21.4716 8.25285 20.0004 7.09597C21.8239 5.66262 24.0139 4.77124 26.32 4.52372C28.6262 4.2762 30.9555 4.68252 33.0416 5.69625C35.1278 6.70997 36.8866 8.29019 38.1171 10.2563C39.3476 12.2224 40.0001 14.495 40 16.8144Z" fill="#F79E1B"/>
<path d="M38.8207 24.4739V24.076H38.9812V23.9949H38.5725V24.076H38.733V24.4739H38.8207ZM39.6141 24.4739V23.9941H39.4888L39.3447 24.3242L39.2006 23.9941H39.0753V24.4739H39.1637V24.112L39.2988 24.424H39.3906L39.5257 24.1112V24.4739H39.6141Z" fill="#F79E1B"/>
</svg>
