<svg width="42" height="41" viewBox="0 0 42 41" fill="none" xmlns="http://www.w3.org/2000/svg">
<path d="M23.4981 3.54198L23.4977 3.54122C22.9457 2.42496 21.8177 1.97967 20.8761 1.97967C19.9341 1.97967 18.8089 2.42456 18.2532 3.53501L18.2532 3.535L18.2494 3.54262L13.8549 12.4526L4.02467 13.8809L4.02438 13.8809C2.93457 14.0395 2.00648 14.801 1.65962 15.8723L1.65887 15.8746C1.32058 16.9253 1.59653 18.0935 2.40553 18.8727L9.51715 25.8064L7.83779 35.595L7.83658 35.6022C7.6562 36.686 8.09349 37.8046 9.00692 38.4639C9.89969 39.1084 11.0915 39.2085 12.0859 38.6786C12.088 38.6774 12.0902 38.6763 12.0924 38.6751L20.8769 34.0611L29.6634 38.6793C29.6641 38.6797 29.6649 38.6802 29.6657 38.6806C30.1115 38.9156 30.5831 39.015 31.0326 39.015C31.6344 39.015 32.2296 38.8321 32.7387 38.4696L32.7473 38.4635L32.7558 38.4573C33.6556 37.7972 34.0984 36.6924 33.917 35.6022L33.9157 35.595L32.2364 25.8064L39.3507 18.8701C40.1569 18.0858 40.4269 16.9265 40.0901 15.8781C39.7512 14.8095 38.8216 14.0397 37.7289 13.8809L37.5158 15.3477L37.7289 13.8809L27.8982 12.4525L23.4981 3.54198Z" fill="#FF8A00" stroke="white" stroke-width="2.96448"/>
</svg>
