<svg width="32" height="32" viewBox="0 0 32 32" fill="none" xmlns="http://www.w3.org/2000/svg">
<path d="M16 0C7.16067 0 0 7.162 0 16C0 24.838 7.162 32 16 32C24.8393 32 32 24.838 32 16C32 7.162 24.838 0 16 0ZM23.8587 10.9613L21.232 23.336C21.0387 24.214 20.516 24.4267 19.7873 24.0133L15.7873 21.0653L13.858 22.9233C13.6453 23.136 13.4647 23.3167 13.0513 23.3167L13.336 19.2453L20.7487 12.548C21.0713 12.264 20.6773 12.1033 20.2507 12.3873L11.0893 18.154L7.14133 16.922C6.28333 16.6513 6.264 16.064 7.32133 15.6513L22.748 9.702C23.464 9.444 24.09 9.87667 23.8573 10.9607L23.8587 10.9613Z" fill="#FF8A00"/>
</svg>
