<svg width="32" height="32" viewBox="0 0 32 32" fill="none" xmlns="http://www.w3.org/2000/svg">
<g clip-path="url(#clip0_77_82)">
<rect width="32" height="32" rx="16" fill="white" fill-opacity="0.5"/>
<path fill-rule="evenodd" clip-rule="evenodd" d="M16 32C24.8367 32 32 24.8367 32 16C32 7.16333 24.8367 0 16 0C7.16333 0 0 7.16333 0 16C0 24.8367 7.16333 32 16 32ZM11.8507 9.10667C14.4727 8.52 17.1913 8.52 19.8133 9.10667L20.096 9.16933C20.8336 9.33409 21.5111 9.70014 22.0532 10.2268C22.5953 10.7535 22.9807 11.4201 23.1667 12.1527C23.8312 14.7716 23.8312 17.5151 23.1667 20.134C22.9807 20.8664 22.5953 21.533 22.0534 22.0596C21.5114 22.5863 20.8341 22.9524 20.0967 23.1173L19.8133 23.1793C18.1433 23.5527 16.4287 23.69 14.72 23.586L12.444 25.6213C12.3884 25.6709 12.3205 25.7046 12.2475 25.719C12.1744 25.7334 12.0989 25.7279 12.0286 25.7032C11.9584 25.6785 11.8961 25.6355 11.8481 25.5785C11.8002 25.5215 11.7684 25.4528 11.756 25.3793L11.3687 23.066C10.6741 22.8736 10.0428 22.5009 9.53877 21.9857C9.03473 21.4705 8.6759 20.8313 8.49867 20.1327C7.8342 17.5142 7.8342 14.7712 8.49867 12.1527C8.68454 11.4201 9.06985 10.7534 9.6118 10.2266C10.1538 9.69988 10.8311 9.33366 11.5687 9.16867L11.8507 9.10667ZM12.1067 12.1733C12.2413 12.0933 12.4 12.062 12.554 12.0847L12.5527 12.084C12.6968 12.1115 12.8267 12.1889 12.9193 12.3027C13.344 12.7873 13.7193 13.312 14.042 13.8693C14.2527 14.2427 14.1153 14.6213 13.9193 14.7813L13.5093 15.1113C13.2987 15.2713 13.3267 15.5847 13.3267 15.5847C13.3267 15.5847 13.934 17.8887 16.21 18.4693L16.2187 18.4647C16.2187 18.4647 16.5233 18.4927 16.692 18.288L17.0187 17.8747C17.172 17.6693 17.552 17.5473 17.9253 17.7493C18.4822 18.0736 19.0069 18.4505 19.492 18.8747C19.734 19.0773 19.7907 19.3753 19.6233 19.692V19.698C19.4449 20.0123 19.2158 20.295 18.9453 20.5347C18.7235 20.736 18.4407 20.8573 18.142 20.8793C18.0473 20.8793 17.954 20.866 17.852 20.834V20.8287C17.5007 20.7253 16.9167 20.478 15.954 19.954C15.1121 19.4883 14.3332 18.917 13.636 18.254L13.6127 18.234L13.5933 18.2113L13.562 18.188L13.542 18.1593C12.8808 17.4647 12.3121 16.6876 11.85 15.8473C11.4918 15.2482 11.1979 14.6129 10.9733 13.952L10.9587 13.944C10.9192 13.8159 10.9074 13.681 10.924 13.548C10.9527 13.3227 11.0607 13.0893 11.2607 12.8587C11.5007 12.5873 11.7827 12.356 12.0953 12.1727L12.1067 12.1733ZM16.1047 11.2047C16.1434 11.166 16.1893 11.1353 16.2399 11.1144C16.2904 11.0934 16.3446 11.0827 16.3993 11.0827C17.654 11.0827 18.742 11.5013 19.6007 12.3227L19.6093 12.3307C20.0459 12.7715 20.3874 13.2972 20.6127 13.8753C20.8369 14.4509 20.9393 15.0668 20.9133 15.684C20.9047 15.7916 20.8547 15.8917 20.7739 15.9633C20.693 16.0348 20.5875 16.0723 20.4796 16.0677C20.3718 16.0631 20.2699 16.0169 20.1953 15.9388C20.1208 15.8606 20.0795 15.7566 20.08 15.6487C20.1015 15.1466 20.0184 14.6456 19.836 14.1773C19.653 13.7071 19.3755 13.2794 19.0207 12.9207C18.3287 12.2607 17.454 11.916 16.3993 11.916C16.3169 11.916 16.2363 11.8916 16.1678 11.8458C16.0993 11.8 16.0459 11.7349 16.0143 11.6588C15.9828 11.5827 15.9745 11.4989 15.9906 11.418C16.0067 11.3372 16.0464 11.2629 16.1047 11.2047ZM16.076 12.5747C16.1147 12.536 16.1606 12.5053 16.2112 12.4844C16.2618 12.4634 16.3159 12.4527 16.3707 12.4527H16.4127L16.4267 12.454C17.3587 12.516 18.1327 12.836 18.6967 13.4407V13.4427C19.2487 14.038 19.5267 14.784 19.5067 15.648C19.4987 15.7547 19.45 15.8542 19.3708 15.926C19.2916 15.9979 19.1878 16.0365 19.0808 16.0341C18.9739 16.0316 18.872 15.9881 18.7962 15.9127C18.7203 15.8373 18.6764 15.7356 18.6733 15.6287C18.6893 14.9707 18.4833 14.438 18.086 14.0093C17.6987 13.594 17.1453 13.3407 16.3853 13.286H16.3707C16.2882 13.286 16.2077 13.2616 16.1391 13.2158C16.0706 13.17 16.0172 13.1049 15.9856 13.0288C15.9541 12.9527 15.9458 12.8689 15.9619 12.788C15.978 12.7072 16.0177 12.6329 16.076 12.5747ZM16.1893 13.868C16.2428 13.8504 16.2993 13.8438 16.3553 13.8487C16.8533 13.8753 17.2927 14.034 17.6153 14.3587C17.9353 14.684 18.0927 15.1253 18.1193 15.6253C18.1234 15.6806 18.1164 15.7361 18.0987 15.7887C18.081 15.8412 18.053 15.8897 18.0164 15.9313C17.9797 15.9728 17.9351 16.0067 17.8852 16.0308C17.8353 16.055 17.7811 16.0689 17.7258 16.0718C17.6704 16.0748 17.6151 16.0666 17.5629 16.0479C17.5107 16.0291 17.4628 16.0002 17.422 15.9627C17.3812 15.9252 17.3482 15.88 17.3251 15.8296C17.302 15.7792 17.2891 15.7247 17.2873 15.6693C17.2687 15.314 17.1633 15.086 17.0227 14.9447C16.8827 14.804 16.66 14.6987 16.312 14.6807C16.2137 14.6785 16.1193 14.6416 16.0455 14.5766C15.9717 14.5116 15.9233 14.4226 15.9087 14.3253C15.8941 14.2281 15.9143 14.1288 15.9658 14.045C16.0173 13.9612 16.096 13.899 16.1893 13.868Z" fill="#FF8A00"/>
</g>
<defs>
<clipPath id="clip0_77_82">
<rect width="32" height="32" rx="16" fill="white"/>
</clipPath>
</defs>
</svg>
