<svg width="32" height="32" viewBox="0 0 32 32" fill="none" xmlns="http://www.w3.org/2000/svg">
<g clip-path="url(#clip0_77_80)">
<rect width="32" height="32" rx="16" fill="white" fill-opacity="0.5"/>
<path fill-rule="evenodd" clip-rule="evenodd" d="M16 32C24.8367 32 32 24.8367 32 16C32 7.16333 24.8367 0 16 0C7.16333 0 0 7.16333 0 16C0 24.8367 7.16333 32 16 32ZM9.86 10.4093C11.1653 8.78667 13.174 7.666 15.3 7.38133C15.6267 7.34 16.28 7.32333 16.7567 7.34C20.49 7.524 23.528 10.0247 24.474 13.6967C24.6333 14.3073 24.6667 14.6587 24.6667 15.654C24.6667 17.034 24.516 17.812 24.022 18.9753C23.2267 20.8573 21.5953 22.4967 19.72 23.2993C17.3933 24.2953 14.9733 24.228 12.5633 23.1073L11.868 22.7807L10.2613 23.166C9.374 23.3747 8.62933 23.526 8.604 23.5087C8.57867 23.4833 8.71267 22.7307 8.89733 21.844L9.24 20.23L8.85533 19.368C8.378 18.3147 8.18533 17.6533 8.06 16.6493C7.78333 14.5333 8.478 12.124 9.86 10.4093ZM14.4213 13.2787C14.4213 13.0693 13.492 11.0287 13.308 10.8193C12.8893 10.368 12.17 10.7273 11.5 11.7227C11.0733 12.3753 10.9473 12.9187 11.0733 13.6887C11.2907 15.0353 11.944 16.1727 13.3333 17.6113C15.3253 19.6693 17.326 20.7567 19.1173 20.7567C20.1213 20.7567 20.54 20.59 21.1927 19.9367C22.0633 19.0587 22.2227 18.4813 21.6787 18.122C21.4187 17.9547 19.5273 17.4107 19.2007 17.4107C19.008 17.4107 18.8407 17.5193 18.4807 17.8707C18.0627 18.2807 17.9707 18.3307 17.6607 18.3307C17.108 18.3307 16.196 17.7373 14.974 16.5747C14.656 16.2733 14.2373 15.8133 14.036 15.5373C13.576 14.9267 13.5593 14.6507 13.944 14.14C14.2873 13.6967 14.4213 13.446 14.4213 13.2787Z" fill="#FF8A00"/>
</g>
<defs>
<clipPath id="clip0_77_80">
<rect width="32" height="32" rx="16" fill="white"/>
</clipPath>
</defs>
</svg>
